<mxfile host="app.diagrams.net" agent="Mozilla/5.0 (Windows NT 10.0; Win64; x64) AppleWebKit/537.36 (KHTML, like Gecko) Chrome/126.0.0.0 Safari/537.36" version="24.7.6">
  <diagram name="Page-1" id="pxMslieJ3cIN-kF8JczP">
    <mxGraphModel dx="543" dy="1438" grid="1" gridSize="10" guides="1" tooltips="1" connect="1" arrows="1" fold="1" page="1" pageScale="1" pageWidth="850" pageHeight="1100" math="0" shadow="0">
      <root>
        <mxCell id="0" />
        <mxCell id="1" parent="0" />
        <mxCell id="r2nyvcYSdvDDosav98jw-1" value="Flowmap pemesanan makanan" style="swimlane;childLayout=stackLayout;resizeParent=1;resizeParentMax=0;startSize=20;html=1;" vertex="1" parent="1">
          <mxGeometry x="250.00000000000045" y="-30" width="240" height="460" as="geometry" />
        </mxCell>
        <mxCell id="r2nyvcYSdvDDosav98jw-2" value="Pembeli" style="swimlane;startSize=20;html=1;" vertex="1" parent="r2nyvcYSdvDDosav98jw-1">
          <mxGeometry y="20" width="120" height="440" as="geometry" />
        </mxCell>
        <mxCell id="r2nyvcYSdvDDosav98jw-14" style="edgeStyle=orthogonalEdgeStyle;rounded=0;orthogonalLoop=1;jettySize=auto;html=1;entryX=0.5;entryY=0;entryDx=0;entryDy=0;" edge="1" parent="r2nyvcYSdvDDosav98jw-2" source="r2nyvcYSdvDDosav98jw-11" target="r2nyvcYSdvDDosav98jw-13">
          <mxGeometry relative="1" as="geometry" />
        </mxCell>
        <mxCell id="r2nyvcYSdvDDosav98jw-11" value="menu" style="strokeWidth=2;html=1;shape=mxgraph.flowchart.document2;whiteSpace=wrap;size=0.25;" vertex="1" parent="r2nyvcYSdvDDosav98jw-2">
          <mxGeometry x="30" y="50" width="65" height="50" as="geometry" />
        </mxCell>
        <mxCell id="r2nyvcYSdvDDosav98jw-13" value="menulis&amp;nbsp;&lt;div&gt;menu&lt;/div&gt;" style="verticalLabelPosition=middle;verticalAlign=middle;html=1;shape=trapezoid;perimeter=trapezoidPerimeter;whiteSpace=wrap;size=0.23;arcSize=10;flipV=1;labelPosition=center;align=center;" vertex="1" parent="r2nyvcYSdvDDosav98jw-2">
          <mxGeometry x="20" y="110" width="85" height="40" as="geometry" />
        </mxCell>
        <mxCell id="r2nyvcYSdvDDosav98jw-15" value="menu dan uang&amp;nbsp;" style="strokeWidth=2;html=1;shape=mxgraph.flowchart.document2;whiteSpace=wrap;size=0.25;" vertex="1" parent="r2nyvcYSdvDDosav98jw-2">
          <mxGeometry x="25" y="170" width="75" height="50" as="geometry" />
        </mxCell>
        <mxCell id="r2nyvcYSdvDDosav98jw-16" style="edgeStyle=orthogonalEdgeStyle;rounded=0;orthogonalLoop=1;jettySize=auto;html=1;exitX=0.5;exitY=1;exitDx=0;exitDy=0;entryX=0.5;entryY=0;entryDx=0;entryDy=0;entryPerimeter=0;" edge="1" parent="r2nyvcYSdvDDosav98jw-2" source="r2nyvcYSdvDDosav98jw-13" target="r2nyvcYSdvDDosav98jw-15">
          <mxGeometry relative="1" as="geometry" />
        </mxCell>
        <mxCell id="r2nyvcYSdvDDosav98jw-58" style="edgeStyle=orthogonalEdgeStyle;rounded=0;orthogonalLoop=1;jettySize=auto;html=1;entryX=0.5;entryY=0;entryDx=0;entryDy=0;" edge="1" parent="r2nyvcYSdvDDosav98jw-2" source="r2nyvcYSdvDDosav98jw-53" target="r2nyvcYSdvDDosav98jw-57">
          <mxGeometry relative="1" as="geometry" />
        </mxCell>
        <mxCell id="r2nyvcYSdvDDosav98jw-53" value="pembeli menerima pesanan&amp;nbsp;" style="verticalLabelPosition=middle;verticalAlign=middle;html=1;shape=trapezoid;perimeter=trapezoidPerimeter;whiteSpace=wrap;size=0.23;arcSize=10;flipV=1;labelPosition=center;align=center;" vertex="1" parent="r2nyvcYSdvDDosav98jw-2">
          <mxGeometry x="12.509999999999991" y="330" width="92.49" height="60" as="geometry" />
        </mxCell>
        <mxCell id="r2nyvcYSdvDDosav98jw-57" value="selesai" style="ellipse;whiteSpace=wrap;html=1;" vertex="1" parent="r2nyvcYSdvDDosav98jw-2">
          <mxGeometry x="32.5" y="410" width="52.5" height="20" as="geometry" />
        </mxCell>
        <mxCell id="r2nyvcYSdvDDosav98jw-3" value="Penjual" style="swimlane;startSize=20;html=1;" vertex="1" parent="r2nyvcYSdvDDosav98jw-1">
          <mxGeometry x="120" y="20" width="120" height="440" as="geometry" />
        </mxCell>
        <mxCell id="r2nyvcYSdvDDosav98jw-5" value="mulai" style="ellipse;whiteSpace=wrap;html=1;" vertex="1" parent="r2nyvcYSdvDDosav98jw-3">
          <mxGeometry x="33.75" y="23" width="52.5" height="20" as="geometry" />
        </mxCell>
        <mxCell id="r2nyvcYSdvDDosav98jw-6" value="menu" style="strokeWidth=2;html=1;shape=mxgraph.flowchart.document2;whiteSpace=wrap;size=0.25;" vertex="1" parent="r2nyvcYSdvDDosav98jw-3">
          <mxGeometry x="26.88" y="50" width="66.25" height="50" as="geometry" />
        </mxCell>
        <mxCell id="r2nyvcYSdvDDosav98jw-8" style="edgeStyle=orthogonalEdgeStyle;rounded=0;orthogonalLoop=1;jettySize=auto;html=1;exitX=0.5;exitY=1;exitDx=0;exitDy=0;entryX=0.5;entryY=0;entryDx=0;entryDy=0;entryPerimeter=0;" edge="1" parent="r2nyvcYSdvDDosav98jw-3" source="r2nyvcYSdvDDosav98jw-5" target="r2nyvcYSdvDDosav98jw-6">
          <mxGeometry relative="1" as="geometry" />
        </mxCell>
        <mxCell id="r2nyvcYSdvDDosav98jw-50" style="edgeStyle=orthogonalEdgeStyle;rounded=0;orthogonalLoop=1;jettySize=auto;html=1;entryX=0.5;entryY=0;entryDx=0;entryDy=0;" edge="1" parent="r2nyvcYSdvDDosav98jw-3" source="r2nyvcYSdvDDosav98jw-17" target="r2nyvcYSdvDDosav98jw-19">
          <mxGeometry relative="1" as="geometry" />
        </mxCell>
        <mxCell id="r2nyvcYSdvDDosav98jw-17" value="menu dan uang" style="strokeWidth=2;html=1;shape=mxgraph.flowchart.document2;whiteSpace=wrap;size=0.25;" vertex="1" parent="r2nyvcYSdvDDosav98jw-3">
          <mxGeometry x="22.50999999999999" y="170" width="75" height="50" as="geometry" />
        </mxCell>
        <mxCell id="r2nyvcYSdvDDosav98jw-52" style="edgeStyle=orthogonalEdgeStyle;rounded=0;orthogonalLoop=1;jettySize=auto;html=1;entryX=0.5;entryY=0;entryDx=0;entryDy=0;" edge="1" parent="r2nyvcYSdvDDosav98jw-3" source="r2nyvcYSdvDDosav98jw-19" target="r2nyvcYSdvDDosav98jw-51">
          <mxGeometry relative="1" as="geometry" />
        </mxCell>
        <mxCell id="r2nyvcYSdvDDosav98jw-19" value="menerima pembayaran&lt;div&gt;&lt;br&gt;&lt;/div&gt;" style="verticalLabelPosition=middle;verticalAlign=middle;html=1;shape=trapezoid;perimeter=trapezoidPerimeter;whiteSpace=wrap;size=0.23;arcSize=10;flipV=1;labelPosition=center;align=center;" vertex="1" parent="r2nyvcYSdvDDosav98jw-3">
          <mxGeometry x="13.760000000000002" y="250" width="92.49" height="60" as="geometry" />
        </mxCell>
        <mxCell id="r2nyvcYSdvDDosav98jw-51" value="&lt;div&gt;mengantarkan&lt;/div&gt;&lt;div&gt;pesanan&amp;nbsp;&lt;/div&gt;&lt;div&gt;kepada&lt;/div&gt;&lt;div&gt;pembeli&lt;/div&gt;" style="verticalLabelPosition=middle;verticalAlign=middle;html=1;shape=trapezoid;perimeter=trapezoidPerimeter;whiteSpace=wrap;size=0.23;arcSize=10;flipV=1;labelPosition=center;align=center;" vertex="1" parent="r2nyvcYSdvDDosav98jw-3">
          <mxGeometry x="13.759999999999982" y="330" width="92.49" height="60" as="geometry" />
        </mxCell>
        <mxCell id="r2nyvcYSdvDDosav98jw-12" style="edgeStyle=orthogonalEdgeStyle;rounded=0;orthogonalLoop=1;jettySize=auto;html=1;" edge="1" parent="r2nyvcYSdvDDosav98jw-1" source="r2nyvcYSdvDDosav98jw-6" target="r2nyvcYSdvDDosav98jw-11">
          <mxGeometry relative="1" as="geometry" />
        </mxCell>
        <mxCell id="r2nyvcYSdvDDosav98jw-18" style="edgeStyle=orthogonalEdgeStyle;rounded=0;orthogonalLoop=1;jettySize=auto;html=1;entryX=0;entryY=0.5;entryDx=0;entryDy=0;entryPerimeter=0;" edge="1" parent="r2nyvcYSdvDDosav98jw-1" source="r2nyvcYSdvDDosav98jw-15" target="r2nyvcYSdvDDosav98jw-17">
          <mxGeometry relative="1" as="geometry" />
        </mxCell>
        <mxCell id="r2nyvcYSdvDDosav98jw-54" style="edgeStyle=orthogonalEdgeStyle;rounded=0;orthogonalLoop=1;jettySize=auto;html=1;" edge="1" parent="r2nyvcYSdvDDosav98jw-1" source="r2nyvcYSdvDDosav98jw-51" target="r2nyvcYSdvDDosav98jw-53">
          <mxGeometry relative="1" as="geometry" />
        </mxCell>
      </root>
    </mxGraphModel>
  </diagram>
</mxfile>
